<svg xmlns="http://www.w3.org/2000/svg" viewBox="0 0 160 50" width="160" height="50">
  <rect width="160" height="50" rx="6" fill="#FFFFFF" stroke="#E0E0E0" stroke-width="1"/>
  <g transform="translate(12, 7) scale(0.75)">
    <path fill="#DF146E" d="M42.1 44.3H2c-1.2 0-2.2-1-2.2-2.2V2.2C-.2 1 .8 0 2 0h40.1c1.2 0 2.2 1 2.2 2.2v39.9c0 1.2-1 2.2-2.2 2.2"/>
    <path fill="#FFF" d="M31.7 24.3l-14.1-2.3 1.9 8.4zm.6-.7L21.2 8.2l-3.6 13.1zm-15.4-2.5L5.2 6.2l15.3 1.9zm-5.7-6.2L4.8 8.8h1.7zm24.5 1.2l-2.7 7.4-4.5-6.1zM21.2 30.2l10.7-4.3.5-1.3zm-8.9 7.9l4.6-16.1 2.3 10.4zm24.1-22l-1.1 3.1 4.1-.1z"/>
  </g>
  <text x="50" y="33" font-family="-apple-system, BlinkMacSystemFont, Segoe UI, Roboto, sans-serif" font-size="22" font-weight="900" fill="#DF146E" letter-spacing="-0.5">bKash</text>
</svg>